<?xml version="1.0" standalone="no"?>
<!DOCTYPE svg PUBLIC "-//W3C//DTD SVG 20010904//EN"
 "http://www.w3.org/TR/2001/REC-SVG-20010904/DTD/svg10.dtd">
<svg version="1.0" xmlns="http://www.w3.org/2000/svg"
 width="384.000000pt" height="384.000000pt" viewBox="0 0 384.000000 384.000000"
 preserveAspectRatio="xMidYMid meet">
<metadata>
Created by potrace 1.11, written by Peter Selinger 2001-2013
</metadata>
<g transform="translate(0.000000,384.000000) scale(0.100000,-0.100000)"
fill="#000000" stroke="none">
<path d="M1295 3650 c-21 -17 -42 -34 -45 -38 -3 -4 -32 -29 -65 -56 -104 -86
-100 -75 -47 -142 25 -33 51 -63 57 -69 6 -5 34 -37 61 -70 27 -32 56 -67 64
-76 39 -42 70 -82 70 -88 0 -5 -126 -8 -279 -9 -299 0 -310 -2 -358 -54 -54
-57 -51 13 -49 -1423 l3 -1330 21 -48 c17 -38 30 -51 63 -66 23 -10 54 -18 70
-17 16 1 29 0 29 -3 0 -3 30 -5 67 -3 38 2 74 3 81 3 42 -1 61 -1 92 1 20 1
42 -1 51 -4 9 -3 22 -2 29 2 8 5 21 5 30 0 9 -5 22 -5 30 0 7 4 24 4 36 0 14
-6 26 -5 29 1 4 5 11 7 16 3 6 -3 42 -5 82 -5 40 1 81 1 92 1 35 -2 40 -2 70
3 17 2 39 1 50 -3 11 -4 32 -4 48 1 15 4 27 4 27 -1 0 -4 16 -4 35 0 19 4 37
4 40 -1 3 -4 16 -4 29 1 13 5 27 6 30 3 3 -3 34 -5 68 -4 35 1 69 2 76 2 6 -1
22 -1 35 -1 12 0 38 1 57 2 20 1 42 -1 51 -4 9 -3 22 -2 29 2 8 5 21 5 30 0 9
-5 22 -5 30 0 7 4 24 4 36 0 14 -6 26 -5 29 0 3 5 15 6 28 1 34 -13 64 3 136
73 85 82 132 126 281 266 67 63 148 139 179 169 31 29 93 87 138 128 l82 76
-2 553 c-1 305 2 554 6 554 5 0 5 5 2 10 -4 6 -6 232 -7 503 0 469 -1 494 -19
527 -11 19 -38 46 -61 59 l-41 23 -588 1 -588 0 -23 26 c-13 14 -86 100 -163
191 -77 91 -144 170 -150 176 -13 14 -38 44 -95 114 -44 54 -60 70 -70 70 -3
-1 -23 -14 -45 -30z m327 -810 c13 -14 52 -58 87 -98 34 -39 69 -72 76 -72 7
0 18 -6 24 -14 11 -13 209 -140 251 -161 11 -5 20 -13 20 -17 0 -5 5 -8 10 -8
6 0 36 -20 68 -45 31 -25 60 -45 65 -45 15 0 6 38 -21 81 -15 24 -37 67 -49
94 -11 28 -44 105 -73 173 -29 68 -49 126 -46 130 8 7 834 10 845 2 9 -6 11
-1879 2 -1881 -3 -1 -101 -3 -216 -4 -168 -2 -221 -6 -263 -19 -52 -18 -105
-65 -122 -112 -6 -14 -11 -119 -12 -234 -2 -133 -6 -210 -13 -211 -54 -4
-1279 -2 -1287 2 -7 4 -11 417 -13 1230 -1 673 -1 1226 1 1229 1 3 147 5 323
5 l321 0 22 -25z"/>
<path d="M1520 2003 c-86 -29 -140 -78 -179 -163 -23 -49 -26 -67 -25 -160 0
-125 22 -192 85 -263 62 -71 169 -101 294 -83 73 11 158 81 195 160 34 76 26
93 -47 99 -13 0 -23 4 -23 7 0 3 -9 6 -19 7 -14 1 -22 -9 -30 -41 -18 -75 -72
-117 -149 -118 -111 0 -172 74 -177 217 -2 75 16 143 51 183 39 47 124 65 193
41 33 -12 81 -74 81 -104 0 -16 20 -16 80 0 8 2 23 4 33 4 22 1 21 25 -2 76
-24 52 -66 98 -116 126 -52 29 -179 35 -245 12z"/>
<path d="M1895 1993 c4 -10 18 -47 31 -83 14 -36 29 -74 34 -85 5 -11 32 -81
60 -155 29 -74 58 -149 66 -167 8 -17 14 -34 14 -38 0 -4 6 -21 14 -38 7 -18
19 -45 25 -62 11 -29 14 -30 69 -30 l57 0 36 90 c20 50 71 180 114 290 43 110
82 206 88 213 5 6 7 12 4 12 -3 0 1 16 9 35 l14 35 -68 0 -69 0 -57 -152 c-31
-84 -58 -157 -59 -163 -6 -22 -60 -160 -66 -167 -4 -4 -25 45 -48 110 -23 64
-61 173 -86 242 l-44 125 -73 3 c-66 3 -72 1 -65 -15z"/>
</g>
</svg>
